<svg xmlns="http://www.w3.org/2000/svg" id="Layer_1" version="1.1" viewBox="0 0 743.2 203.4">
  <!-- Generator: Adobe Illustrator 29.8.2, SVG Export Plug-In . SVG Version: 2.1.1 Build 3)  -->
  <g>
    <path d="M20.4,72.8h-4.5c3,30.1,10.1,57.7,24.8,85.7l2.3-12.1c-13.2-23.8-19.8-47.6-22.6-73.5Z" fill="#fffcfc"/>
    <path d="M77.5,12.4C30.4,15.1,14,25.6,14,25.6c0,4.3,0,8.6,0,12.7h4.5c0-3.3,0-6.7,0-10.1,0,0,14.7-8.9,55.5-10.6,55.2-2.3,83,9.3,83,9.3-15.4,75.7-36.8,125.1-85,142.2l18.5-101.4,40.9-.4,11.7-23.7H19.1l-10.5,23.7h53.9l-15.5,97.3-.7,3.7c4.5,7.6,9.6,15.3,15.3,23.1,67-10.6,96.4-70,118.5-169.4,0,0-35.4-13.7-102.7-9.8Z" fill="#fffcfc"/>
  </g>
  <g>
    <path d="M227.8,40.1h82.7v16.6h-32.8v99h-17.1V56.7h-32.8v-16.6Z" fill="#fffcfc"/>
    <path d="M314.3,112.8c0-6.4,1.1-12.4,3.3-17.9,2.2-5.5,5.2-10.2,9-14.2,3.8-4,8.3-7.2,13.4-9.4s10.6-3.4,16.5-3.4c12.1,0,22.2,4.9,30.3,14.6v-12.4h16.4v85.5h-16.4v-11.7c-8.4,9.3-18.5,14-30.3,14s-11.2-1.2-16.3-3.5c-5.1-2.3-9.6-5.5-13.4-9.6-3.9-4.1-6.9-8.8-9.1-14.3-2.2-5.5-3.3-11.4-3.3-17.7ZM359.1,142.8c3.9,0,7.5-.7,10.9-2.1s6.5-3.4,9.1-6c2.6-2.6,4.7-5.7,6.3-9.3,1.6-3.6,2.3-7.8,2.3-12.4s-.7-8.3-2.2-11.9c-1.4-3.6-3.5-6.8-6-9.4-2.6-2.6-5.6-4.7-9-6.2-3.4-1.5-7.2-2.3-11.3-2.3s-8,.8-11.5,2.4-6.5,3.8-8.9,6.4c-2.5,2.7-4.4,5.8-5.7,9.4s-2,7.4-2,11.3.7,8.1,2.1,11.7c1.4,3.6,3.3,6.8,5.9,9.5,2.5,2.7,5.5,4.9,8.9,6.4,3.4,1.6,7.1,2.3,11.1,2.3Z" fill="#fffcfc"/>
    <path d="M419.6,144.4l10.3-11.3c2.6,3,5.4,5.4,8.5,7.1,3.1,1.7,6.2,2.6,9.3,2.6s6.4-1,8.8-3c2.4-2,3.6-4.4,3.6-7.3s-.8-4.6-2.4-6.3c-1.6-1.7-4.3-3.6-8.2-5.6-4.3-2.2-8.1-4.4-11.3-6.4-3.3-2-6-4.2-8.3-6.4-2.3-2.2-3.9-4.6-5.1-7.2-1.1-2.6-1.7-5.6-1.7-8.9s.6-6.4,1.9-9.3,3.1-5.4,5.4-7.5c2.3-2.1,5-3.8,8.2-5s6.6-1.9,10.2-1.9,9.9,1.1,14.2,3.4,8.2,5.4,11.7,9.5l-10.1,10.5c-2.5-2.5-5-4.4-7.6-5.9-2.6-1.4-5.4-2.2-8.5-2.2s-5.2.8-7.2,2.3c-2,1.5-3,3.5-3,6s.8,4.1,2.4,5.6c1.6,1.5,3.8,3,6.6,4.5,4.8,2.5,9,4.8,12.6,6.9,3.5,2.1,6.5,4.4,8.8,6.7s4,4.8,5.2,7.4,1.8,5.7,1.8,9.3-.7,7.1-2,10.2-3.3,5.9-5.8,8.3c-2.5,2.4-5.5,4.2-9,5.6s-7.4,2-11.7,2-10.6-1.1-15.4-3.4c-4.8-2.2-8.9-5.6-12.3-10.1Z" fill="#fffcfc"/>
    <path d="M488.1,112.8c0-6.4,1.1-12.4,3.3-17.9,2.2-5.5,5.2-10.2,9-14.2,3.8-4,8.3-7.2,13.4-9.4s10.6-3.4,16.5-3.4c12.1,0,22.2,4.9,30.3,14.6v-45.4h16.4v118.4h-16.4v-11.7c-8.4,9.3-18.5,14-30.3,14s-11.2-1.2-16.3-3.5c-5.1-2.3-9.6-5.5-13.4-9.6-3.9-4.1-6.9-8.8-9.1-14.3-2.2-5.5-3.3-11.4-3.3-17.7ZM532.9,142.8c3.9,0,7.5-.7,10.9-2.1s6.4-3.4,9-6c2.6-2.6,4.6-5.7,6.2-9.3,1.6-3.6,2.3-7.8,2.3-12.4s-.7-8.3-2.2-11.9c-1.4-3.6-3.4-6.8-6-9.4s-5.5-4.7-8.9-6.2c-3.4-1.5-7.2-2.3-11.3-2.3s-8,.8-11.5,2.4-6.5,3.8-8.9,6.4c-2.5,2.7-4.4,5.8-5.7,9.4-1.3,3.6-2,7.4-2,11.3s.7,8.1,2.1,11.7c1.4,3.6,3.3,6.8,5.9,9.5,2.5,2.7,5.5,4.9,8.9,6.4,3.4,1.6,7.1,2.3,11.1,2.3Z" fill="#fffcfc"/>
    <path d="M597.1,46c0-3.1,1.2-5.7,3.5-7.9,2.3-2.1,5-3.2,8.1-3.2s5.8,1.2,8,3.5c2.3,2.3,3.4,5.1,3.4,8.3s-1.1,5.8-3.4,8c-2.3,2.3-4.9,3.4-8,3.4s-6.1-1.2-8.3-3.6c-2.2-2.4-3.3-5.2-3.3-8.4ZM600.5,155.6v-85.5h16.4v85.5h-16.4Z" fill="#fffcfc"/>
    <path d="M677.9,67.9c12.1,0,22.2,4.9,30.3,14.6v-12.4h16.4v116.7h-16.4v-43c-8.4,9.3-18.5,14-30.3,14s-11.2-1.2-16.3-3.5c-5.1-2.3-9.6-5.5-13.4-9.6-3.9-4.1-6.9-8.8-9.1-14.3-2.2-5.5-3.3-11.4-3.3-17.7s1.1-12.4,3.3-17.9c2.2-5.5,5.2-10.2,9-14.2,3.8-4,8.3-7.2,13.4-9.4s10.6-3.4,16.5-3.4ZM652.4,112.8c0,4.2.7,8.1,2.1,11.7,1.4,3.6,3.3,6.8,5.9,9.5,2.5,2.7,5.5,4.9,8.9,6.4,3.4,1.6,7.1,2.3,11.1,2.3s7.5-.7,10.9-2.1,6.4-3.4,9-6c2.6-2.6,4.6-5.7,6.2-9.3,1.6-3.6,2.3-7.8,2.3-12.4s-.7-8.3-2.2-11.9c-1.4-3.6-3.4-6.8-6-9.4-2.5-2.6-5.5-4.7-8.9-6.2-3.4-1.5-7.2-2.3-11.3-2.3s-8,.8-11.5,2.4c-3.5,1.6-6.5,3.8-8.9,6.4-2.5,2.7-4.4,5.8-5.7,9.4-1.3,3.6-2,7.4-2,11.3Z" fill="#fffcfc"/>
  </g>
</svg>